<?xml version="1.0" encoding="iso-8859-1"?>
<!-- Uploaded to: SVG Repo, www.svgrepo.com, Generator: SVG Repo Mixer Tools -->
<svg version="1.1" id="Layer_1" xmlns="http://www.w3.org/2000/svg" xmlns:xlink="http://www.w3.org/1999/xlink" 
	 viewBox="0 0 486.117 486.117" xml:space="preserve">
<g id="XMLID_1164_">
	<g id="XMLID_400_">
		<rect x="7.416" style="fill:#A1083E;" width="471.105" height="455.734"/>
	</g>
	<g id="XMLID_573_">
		<rect x="319.014" style="fill:#D60B52;" width="159.507" height="455.734"/>
	</g>
	<g id="XMLID_770_">
		<rect x="379.779" y="326.609" style="fill:#FFFFFF;" width="68.36" height="98.742"/>
	</g>
	<g id="XMLID_1163_">
		<circle style="fill:#FFFFFF;" cx="410.161" cy="273.44" r="22.787"/>
	</g>
	<g id="XMLID_574_">
		<rect x="37.978" y="37.978" style="fill:#E0D6C6;" width="303.823" height="387.374"/>
	</g>
	<g id="XMLID_1108_">
		<rect x="167.103" y="83.551" style="fill:#D60B52;" width="45.573" height="98.742"/>
	</g>
	<g id="XMLID_1092_">
		<rect x="136.72" y="372.183" style="fill:#CBBBA0;" width="106.338" height="53.169"/>
	</g>
	<g id="XMLID_1061_">
		<rect x="364.587" y="30.478" style="fill:#FFFFFF;" width="15.191" height="15"/>
	</g>
	<g id="XMLID_1062_">
		<rect x="364.587" y="60.86" style="fill:#FFFFFF;" width="15.191" height="15"/>
	</g>
	<g id="XMLID_1063_">
		<rect x="364.587" y="91.243" style="fill:#FFFFFF;" width="15.191" height="15"/>
	</g>
	<g id="XMLID_1064_">
		<rect x="364.587" y="121.625" style="fill:#FFFFFF;" width="15.191" height="15"/>
	</g>
	<g id="XMLID_1065_">
		<rect x="364.587" y="152.006" style="fill:#FFFFFF;" width="15.191" height="15"/>
	</g>
	<g id="XMLID_1066_">
		<rect x="364.587" y="189.985" style="fill:#1D1D1B;" width="91.147" height="15"/>
	</g>
	<g id="XMLID_1057_">
		<path style="fill:#1D1D1B;" d="M410.161,303.727c-16.7,0-30.287-13.587-30.287-30.287s13.586-30.286,30.287-30.286
			s30.287,13.586,30.287,30.286S426.861,303.727,410.161,303.727z M410.161,258.154c-8.429,0-15.287,6.857-15.287,15.286
			c0,8.43,6.857,15.287,15.287,15.287s15.287-6.857,15.287-15.287C425.448,265.011,418.59,258.154,410.161,258.154z"/>
	</g>
	<g id="XMLID_1068_">
		<rect x="402.661" y="220.271" style="fill:#FFFFFF;" width="15" height="15.191"/>
	</g>
	<g id="XMLID_1067_">
		<path style="fill:#1D1D1B;" d="M455.639,432.852h-90.956V319.11h90.956V432.852z M379.683,417.852h60.956V334.11h-60.956V417.852z
			"/>
	</g>
	<g id="XMLID_1070_">
		<rect x="394.97" y="349.492" style="fill:#1D1D1B;" width="30.382" height="15"/>
	</g>
	<g id="XMLID_1071_">
		<rect x="402.566" y="30.478" style="fill:#1D1D1B;" width="53.169" height="15"/>
	</g>
	<g id="XMLID_1073_">
		<rect x="402.566" y="60.86" style="fill:#1D1D1B;" width="53.169" height="15"/>
	</g>
	<g id="XMLID_1074_">
		<rect x="402.566" y="91.243" style="fill:#1D1D1B;" width="53.169" height="15"/>
	</g>
	<g id="XMLID_1075_">
		<rect x="402.566" y="121.625" style="fill:#1D1D1B;" width="53.169" height="15"/>
	</g>
	<g id="XMLID_1076_">
		<rect x="402.566" y="152.006" style="fill:#1D1D1B;" width="53.169" height="15"/>
	</g>
	<g>
		<path style="fill:#1D1D1B;" d="M0.096,0.095v463.139h52.206v22.883h15v-22.883h350.686v22.883h15v-22.883h53.033V0.095H0.096z
			 M471.021,448.234H15.096V15.095h455.925V448.234z"/>
		<path style="fill:#1D1D1B;" d="M349.301,30.478H30.478v402.374h318.823V30.478z M235.558,417.852H144.22v-38.169h91.338V417.852z
			 M334.301,417.852h-83.743v-38.169h15.287v-15H113.934v15h15.287v38.169H45.478V45.478h288.823V417.852z"/>
	</g>
	<g id="XMLID_1080_">
		<rect x="53.169" y="114.029" style="fill:#1D1D1B;" width="98.743" height="15"/>
	</g>
	<g id="XMLID_559_">
		<rect x="227.867" y="114.029" style="fill:#1D1D1B;" width="98.742" height="15"/>
	</g>
	<g id="XMLID_1060_">
		<path style="fill:#1D1D1B;" d="M220.176,189.794h-60.574V76.051h60.574V189.794z M174.603,174.794h30.574V91.051h-30.574V174.794z
			"/>
	</g>
	<g id="XMLID_1083_">
		<polygon style="fill:#1D1D1B;" points="212.581,220.176 167.198,220.176 167.198,197.485 182.198,197.485 182.198,205.176 
			197.581,205.176 197.581,197.485 212.581,197.485 		"/>
	</g>
	<g id="XMLID_1084_">
		<rect x="182.389" y="212.676" style="fill:#1D1D1B;" width="15" height="37.978"/>
	</g>
	<g id="XMLID_560_">
		
			<rect x="226.083" y="202.831" transform="matrix(-0.7071 -0.7071 0.7071 -0.7071 204.0588 635.1983)" style="fill:#FFFFFF;" width="15" height="145.013"/>
	</g>
	<g id="XMLID_561_">
		
			<rect x="265.959" y="259.55" transform="matrix(-0.7071 -0.7071 0.7071 -0.7071 268.1046 673.1193)" style="fill:#FFFFFF;" width="15.001" height="42.967"/>
	</g>
	<g id="XMLID_401_">
		
			<rect x="83.658" y="180.453" transform="matrix(-0.7071 -0.7071 0.7071 -0.7071 5.2302 427.5223)" style="fill:#FFFFFF;" width="15" height="64.449"/>
	</g>
</g>
</svg>